<svg class="animated" id="freepik_stories-landing-page" xmlns="http://www.w3.org/2000/svg" viewBox="0 0 500 500" version="1.1" xmlns:xlink="http://www.w3.org/1999/xlink" xmlns:svgjs="http://svgjs.com/svgjs"><style>svg#freepik_stories-landing-page:not(.animated) .animable {opacity: 0;}svg#freepik_stories-landing-page.animated #freepik--background-complete--inject-1 {animation: 1.5s Infinite  linear heartbeat;animation-delay: 0s;}svg#freepik_stories-landing-page.animated #freepik--Shadow--inject-1 {animation: 1.5s Infinite  linear wind;animation-delay: 0s;}svg#freepik_stories-landing-page.animated #freepik--landing-page--inject-1 {animation: 1.5s Infinite  linear floating;animation-delay: 0s;}svg#freepik_stories-landing-page.animated #elyzqcgrczy9b {animation: 1s 1 forwards cubic-bezier(.36,-0.01,.5,1.38) slideDown;animation-delay: 0s;}svg#freepik_stories-landing-page.animated #elyme15w6oqw {animation: 1s 1 forwards cubic-bezier(.36,-0.01,.5,1.38) slideDown;animation-delay: 0.025s;opacity: 0}svg#freepik_stories-landing-page.animated #elih9vn9g863 {animation: 1s 1 forwards cubic-bezier(.36,-0.01,.5,1.38) slideDown;animation-delay: 0.05s;opacity: 0}svg#freepik_stories-landing-page.animated #elyfa52dqr82l {animation: 1s 1 forwards cubic-bezier(.36,-0.01,.5,1.38) slideDown;animation-delay: 0.07500000000000001s;opacity: 0}svg#freepik_stories-landing-page.animated #elf4vtp6nx3ou {animation: 1s 1 forwards cubic-bezier(.36,-0.01,.5,1.38) slideDown;animation-delay: 0.1s;opacity: 0}svg#freepik_stories-landing-page.animated #eltx0buwfqazt {animation: 1s 1 forwards cubic-bezier(.36,-0.01,.5,1.38) slideDown;animation-delay: 0.125s;opacity: 0}svg#freepik_stories-landing-page.animated #eladwqtig4vpp {animation: 1s 1 forwards cubic-bezier(.36,-0.01,.5,1.38) slideDown;animation-delay: 0.15000000000000002s;opacity: 0}svg#freepik_stories-landing-page.animated #el4xpfycryc2u {animation: 1s 1 forwards cubic-bezier(.36,-0.01,.5,1.38) slideDown;animation-delay: 0.17500000000000002s;opacity: 0}svg#freepik_stories-landing-page.animated #el8mj3ek1fuix {animation: 1s 1 forwards cubic-bezier(.36,-0.01,.5,1.38) slideDown;animation-delay: 0.2s;opacity: 0}svg#freepik_stories-landing-page.animated #el42g3j2nuln9 {animation: 1s 1 forwards cubic-bezier(.36,-0.01,.5,1.38) slideDown;animation-delay: 0.225s;opacity: 0}svg#freepik_stories-landing-page.animated #elei8tyst1lnl {animation: 1s 1 forwards cubic-bezier(.36,-0.01,.5,1.38) slideDown;animation-delay: 0.25s;opacity: 0}svg#freepik_stories-landing-page.animated #ellnilz1reumh {animation: 1s 1 forwards cubic-bezier(.36,-0.01,.5,1.38) slideDown;animation-delay: 0.275s;opacity: 0}svg#freepik_stories-landing-page.animated #el9qpfpl6lbfv {animation: 1s 1 forwards cubic-bezier(.36,-0.01,.5,1.38) slideDown;animation-delay: 0.30000000000000004s;opacity: 0}svg#freepik_stories-landing-page.animated #elim5631nxv6 {animation: 1s 1 forwards cubic-bezier(.36,-0.01,.5,1.38) slideDown;animation-delay: 0.325s;opacity: 0}svg#freepik_stories-landing-page.animated #elvl4f1kcz5x {animation: 1s 1 forwards cubic-bezier(.36,-0.01,.5,1.38) slideDown;animation-delay: 0.35000000000000003s;opacity: 0}svg#freepik_stories-landing-page.animated #el0opuvr2cqyzk {animation: 1s 1 forwards cubic-bezier(.36,-0.01,.5,1.38) slideDown;animation-delay: 0.375s;opacity: 0}svg#freepik_stories-landing-page.animated #els7dmesildrs {animation: 1s 1 forwards cubic-bezier(.36,-0.01,.5,1.38) slideDown;animation-delay: 0.4s;opacity: 0}svg#freepik_stories-landing-page.animated #elijjvwbsthk9 {animation: 1s 1 forwards cubic-bezier(.36,-0.01,.5,1.38) slideDown;animation-delay: 0.42500000000000004s;opacity: 0}svg#freepik_stories-landing-page.animated #elp0xjhltgun {animation: 1s 1 forwards cubic-bezier(.36,-0.01,.5,1.38) slideDown;animation-delay: 0.45s;opacity: 0}svg#freepik_stories-landing-page.animated #el3gcfww0tjev {animation: 1s 1 forwards cubic-bezier(.36,-0.01,.5,1.38) slideDown;animation-delay: 0.47500000000000003s;opacity: 0}svg#freepik_stories-landing-page.animated #elaqm7o1d2ab {animation: 1s 1 forwards cubic-bezier(.36,-0.01,.5,1.38) slideDown;animation-delay: 0.5s;opacity: 0}svg#freepik_stories-landing-page.animated #elzrhc9bvqo9 {animation: 1s 1 forwards cubic-bezier(.36,-0.01,.5,1.38) slideDown;animation-delay: 0.525s;opacity: 0}svg#freepik_stories-landing-page.animated #elvywb45u058 {animation: 1s 1 forwards cubic-bezier(.36,-0.01,.5,1.38) slideDown;animation-delay: 0.55s;opacity: 0}svg#freepik_stories-landing-page.animated #el319msyhfxju {animation: 1s 1 forwards cubic-bezier(.36,-0.01,.5,1.38) slideDown;animation-delay: 0.5750000000000001s;opacity: 0}svg#freepik_stories-landing-page.animated #elfhyqvt2rmep {animation: 1s 1 forwards cubic-bezier(.36,-0.01,.5,1.38) slideDown;animation-delay: 0.6000000000000001s;opacity: 0}svg#freepik_stories-landing-page.animated #elsg6we06msc {animation: 1s 1 forwards cubic-bezier(.36,-0.01,.5,1.38) slideDown;animation-delay: 0.625s;opacity: 0}svg#freepik_stories-landing-page.animated #elt1zd1411ch {animation: 1s 1 forwards cubic-bezier(.36,-0.01,.5,1.38) slideDown;animation-delay: 0.65s;opacity: 0}svg#freepik_stories-landing-page.animated #elign541osktm {animation: 1s 1 forwards cubic-bezier(.36,-0.01,.5,1.38) slideDown;animation-delay: 0.675s;opacity: 0}svg#freepik_stories-landing-page.animated #el5e4ywh2ik9l {animation: 1s 1 forwards cubic-bezier(.36,-0.01,.5,1.38) slideDown;animation-delay: 0.7000000000000001s;opacity: 0}svg#freepik_stories-landing-page.animated #elizuqm84n7u {animation: 1s 1 forwards cubic-bezier(.36,-0.01,.5,1.38) slideDown;animation-delay: 0.7250000000000001s;opacity: 0}svg#freepik_stories-landing-page.animated #el0a8oleqtasip {animation: 1s 1 forwards cubic-bezier(.36,-0.01,.5,1.38) slideDown;animation-delay: 0.75s;opacity: 0}svg#freepik_stories-landing-page.animated #elflhbs1a6k9w {animation: 1s 1 forwards cubic-bezier(.36,-0.01,.5,1.38) slideDown;animation-delay: 0.775s;opacity: 0}svg#freepik_stories-landing-page.animated #eljq836dzva3 {animation: 1s 1 forwards cubic-bezier(.36,-0.01,.5,1.38) slideDown;animation-delay: 0.8s;opacity: 0}svg#freepik_stories-landing-page.animated #elzfl3729yc9m {animation: 1s 1 forwards cubic-bezier(.36,-0.01,.5,1.38) slideDown;animation-delay: 0.8250000000000001s;opacity: 0}svg#freepik_stories-landing-page.animated #eljtwenxq54z {animation: 1s 1 forwards cubic-bezier(.36,-0.01,.5,1.38) slideDown;animation-delay: 0.8500000000000001s;opacity: 0}svg#freepik_stories-landing-page.animated #elhf0v5l7ewz {animation: 1s 1 forwards cubic-bezier(.36,-0.01,.5,1.38) slideDown;animation-delay: 0.875s;opacity: 0}svg#freepik_stories-landing-page.animated #eld5c3441bsqm {animation: 1s 1 forwards cubic-bezier(.36,-0.01,.5,1.38) slideDown;animation-delay: 0.9s;opacity: 0}svg#freepik_stories-landing-page.animated #elynq9dcep1pg {animation: 1s 1 forwards cubic-bezier(.36,-0.01,.5,1.38) slideDown;animation-delay: 0.925s;opacity: 0}svg#freepik_stories-landing-page.animated #elh9u3iawwf9j {animation: 1s 1 forwards cubic-bezier(.36,-0.01,.5,1.38) slideDown;animation-delay: 0.9500000000000001s;opacity: 0}svg#freepik_stories-landing-page.animated #ely2b57fkn58 {animation: 1s 1 forwards cubic-bezier(.36,-0.01,.5,1.38) slideDown;animation-delay: 0.9750000000000001s;opacity: 0}svg#freepik_stories-landing-page.animated #freepik--Character--inject-1 {animation: 1s 1 forwards cubic-bezier(.36,-0.01,.5,1.38) slideDown,1.5s Infinite  linear floating;animation-delay: 0s,1s;}            @keyframes heartbeat {                0% {                    transform: scale(1);                }                10% {                    transform: scale(1.1);                }                30% {                    transform: scale(1);                }                40% {                    transform: scale(1);                }                50% {                    transform: scale(1.1);                }                60% {                    transform: scale(1);                }                100% {                    transform: scale(1);                }            }                    @keyframes wind {                0% {                    transform: rotate( 0deg );                }                25% {                    transform: rotate( 1deg );                }                75% {                    transform: rotate( -1deg );                }            }                    @keyframes floating {                0% {                    opacity: 1;                    transform: translateY(0px);                }                50% {                    transform: translateY(-10px);                }                100% {                    opacity: 1;                    transform: translateY(0px);                }            }                    @keyframes slideDown {                0% {                    opacity: 0;                    transform: translateY(-30px);                }                100% {                    opacity: 1;                    transform: translateY(0);                }            }        </style><g id="freepik--background-complete--inject-1" style="transform-origin: 250px 219.279px 0px;" class="animable animator-active"><rect y="382.4" width="500" height="0.25" style="fill: rgb(235, 235, 235); transform-origin: 250px 382.525px 0px;" id="el6yitqpn3vxx" class="animable"></rect><rect x="52.46" y="391.92" width="25.54" height="0.25" style="fill: rgb(235, 235, 235); transform-origin: 65.23px 392.045px 0px;" id="elfilj4jxcrnn" class="animable"></rect><rect x="154.06" y="389.21" width="109.94" height="0.25" style="fill: rgb(235, 235, 235); transform-origin: 209.03px 389.335px 0px;" id="eleqxt9pz6ko" class="animable"></rect><rect x="97.33" y="395.18" width="72.67" height="0.25" style="fill: rgb(235, 235, 235); transform-origin: 133.665px 395.305px 0px;" id="elznqeqhlfz4q" class="animable"></rect><rect x="353.66" y="399.53" width="96.25" height="0.25" style="fill: rgb(235, 235, 235); transform-origin: 401.785px 399.655px 0px;" id="elosc1sqjng4r" class="animable"></rect><rect x="338.42" y="399.53" width="6.33" height="0.25" style="fill: rgb(235, 235, 235); transform-origin: 341.585px 399.655px 0px;" id="elzx2n1eqi14g" class="animable"></rect><rect x="301.22" y="395.31" width="69.67" height="0.25" style="fill: rgb(235, 235, 235); transform-origin: 336.055px 395.435px 0px;" id="el185yybjd4n4" class="animable"></rect><path d="M237,337.8H43.91a5.71,5.71,0,0,1-5.7-5.71V60.66A5.71,5.71,0,0,1,43.91,55H237a5.71,5.71,0,0,1,5.71,5.71V332.09A5.71,5.71,0,0,1,237,337.8ZM43.91,55.2a5.46,5.46,0,0,0-5.45,5.46V332.09a5.46,5.46,0,0,0,5.45,5.46H237a5.47,5.47,0,0,0,5.46-5.46V60.66A5.47,5.47,0,0,0,237,55.2Z" style="fill: rgb(235, 235, 235); transform-origin: 140.461px 196.4px 0px;" id="elnn5lwx810r" class="animable"></path><path d="M453.31,337.8H260.21a5.72,5.72,0,0,1-5.71-5.71V60.66A5.72,5.72,0,0,1,260.21,55h193.1A5.71,5.71,0,0,1,459,60.66V332.09A5.71,5.71,0,0,1,453.31,337.8ZM260.21,55.2a5.47,5.47,0,0,0-5.46,5.46V332.09a5.47,5.47,0,0,0,5.46,5.46h193.1a5.47,5.47,0,0,0,5.46-5.46V60.66a5.47,5.47,0,0,0-5.46-5.46Z" style="fill: rgb(235, 235, 235); transform-origin: 356.75px 196.4px 0px;" id="ell9t2jsbmslc" class="animable"></path><path d="M443.58,94.68c-3.89,11.29-17.11.4-23.27-8.61,6.27-3.27,15.58-4,20.55-.41q-3.39-6.63-7.34-13a10.85,10.85,0,0,1-.14,2.5c-2.44,11.73-16.94,2.5-24.27-5.76,5.82-4,15-5.91,20.4-2.91q-1.51-2.22-3.1-4.4c-8.42-.46-7.48-13.25-3.7-20.84,7.71,6.34,13,19.33,5.93,20.7q4.13,5.75,7.75,11.77c-.41-6.07,4-14.39,9.55-18.85,7.81,12.23,8,31.43-3.61,26.42a11.3,11.3,0,0,1-2.25-1.16q3.63,6.61,6.67,13.48c.37-6,5.83-13.7,11.87-17.43,6.16,13,3.91,32-6.93,25.64a11.74,11.74,0,0,1-2.09-1.42q2.76,7,4.92,14.15c1.12-5.93,7.5-12.84,14-15.79,4.47,13.6-.12,32.18-10.08,24.53a11.74,11.74,0,0,1-1.9-1.67c1.25,4.83,2.29,9.72,3.13,14.64,1.84-5.75,9-11.81,15.81-13.93,2.74,14-4.11,32-13.05,23.1a12.38,12.38,0,0,1-1.67-1.89c.63,5,1.07,9.95,1.29,15,2.54-5.5,10.43-10.63,17.41-11.89,1,14.3-8.05,31.35-15.81,21.38a12.62,12.62,0,0,1-1.43-2.1q0,7.54-.59,15.12c3.21-5.19,11.68-9.33,18.77-9.71-.8,14.4-11.95,30.39-18.39,19.41a12.12,12.12,0,0,1-1.14-2.28c-.62,4.94-1.44,9.89-2.47,14.81a1,1,0,1,1-1.85-.39,176.75,176.75,0,0,0,3.37-24.39,10.3,10.3,0,0,1-1.58,2c-8.83,8.15-15.2-8-16.32-18.78,7.08.13,15.62,3.91,18.25,9.48.13-5,0-10-.23-14.91a10.56,10.56,0,0,1-1.33,2.12c-7.74,9.12-16.08-5.93-18.52-16.47,7-.76,16,1.92,19.28,7.08q-.74-7.39-2.08-14.69a10.12,10.12,0,0,1-1.05,2.26c-6.56,10-16.69-3.84-20.41-14,6.88-1.63,16.08-.09,20,4.61q-1.65-7.23-3.88-14.3a10.38,10.38,0,0,1-.76,2.38c-5.28,10.69-17-1.73-22-11.37,6.63-2.47,16-2.07,20.43,2.11q-2.54-7-5.64-13.73A9.91,9.91,0,0,1,443.58,94.68Z" style="fill: rgb(245, 245, 245); transform-origin: 444.754px 122.826px 0px;" id="el35erujut4ym" class="animable"></path><path d="M170.16,377.61c4.75-8.23-8.69-10.5-17.32-9.52,1.3,5.48,5.7,11.48,10.47,12.59q-5.76,1.41-11.65,2.35a8.1,8.1,0,0,0,1.43-1.39c5.79-7.58-7.32-11.49-16.11-11.6.6,5.6,4.25,12.1,8.88,13.79-1.42.16-2.84.31-4.26.43-4.67-4.83-11.88,2.4-14.47,8.64,7.83,1.33,18.41-2.24,15.55-7.22q5.59-.53,11.11-1.48c-3.86,2.92-6.56,9.93-6.36,15.58,11.43-1.68,23.07-11.59,14-15.95a9.73,9.73,0,0,0-1.87-.75q5.86-1.26,11.59-3c-3.45,3.37-5.21,10.65-4.31,16.23,11-3.07,21.3-14.33,11.82-17.54a9.8,9.8,0,0,0-1.94-.51q5.63-2,11.08-4.41c-3,3.76-3.82,11.2-2.23,16.62,10.52-4.4,19.31-16.84,9.5-18.85a9.11,9.11,0,0,0-2-.27q5.34-2.65,10.45-5.75c-2.51,4.11-2.4,11.59-.15,16.78,9.88-5.67,17.1-19.13,7.1-19.89a9.74,9.74,0,0,0-2,0q5-3.3,9.68-7c-2,4.4-1,11.82,1.92,16.68,9.12-6.86,14.67-21.19,4.62-20.66a8.77,8.77,0,0,0-2,.24q4.54-3.93,8.78-8.24c-1.44,4.64.48,11.89,3.94,16.35,8.26-8,12.06-23,2.1-21.18a10,10,0,0,0-2,.5q4-4.41,7.63-9.2A.76.76,0,1,0,242,329a142.26,142.26,0,0,1-12.92,14.74,8.32,8.32,0,0,0,.36-2c.3-9.57-12.72-5-19.81,0,3.76,4.2,10.49,7.36,15.22,6q-4.4,4-9.1,7.64a8.07,8.07,0,0,0,.59-1.91c1.45-9.41-12-6.59-19.57-2.56,3.21,4.63,9.48,8.62,14.31,7.91q-4.83,3.42-9.92,6.41a8.61,8.61,0,0,0,.81-1.81c2.58-9.14-11-8-19.06-5,2.61,5,8.33,9.72,13.2,9.63q-5.21,2.77-10.62,5.12a8.16,8.16,0,0,0,1-1.7c3.68-8.75-9.92-9.35-18.31-7.31,2,5.28,7.07,10.68,11.91,11.19q-5.51,2.12-11.19,3.77A8.77,8.77,0,0,0,170.16,377.61Z" style="fill: rgb(245, 245, 245); transform-origin: 185.299px 364.213px 0px;" id="elrg5ezjgldcf" class="animable"></path><path d="M166.9,344.28c9.36-11.45-10.72-18.28-24.22-18.92.63,8.74,5.91,19,12.94,21.92q-9.18.75-18.46.72a13.13,13.13,0,0,0,2.55-1.78c10.77-10.19-8.39-19.47-21.86-21.81-.47,8.75,3.53,19.63,10.2,23.37-2.21-.09-4.43-.23-6.64-.39-6-8.58-18.83.73-24.37,9.66,11.7,4,28.83,1.14,25.67-7.22q8.73.6,17.43.5c-6.66,3.52-12.54,13.61-13.63,22.33,18,.27,38.29-12.06,25.49-21a15,15,0,0,0-2.69-1.62q9.31-.48,18.54-1.74c-6.13,4.31-10.65,15.06-10.64,23.84,17.7-2,36.26-16.71,22.5-24a15,15,0,0,0-2.86-1.27q9.14-1.63,18.1-4c-5.52,5-8.65,16.26-7.54,25,17.23-4.15,33.82-21.07,19.27-26.58a14.71,14.71,0,0,0-3-.92q8.85-2.75,17.46-6.23c-4.86,5.69-6.56,17.21-4.39,25.72,16.58-6.24,31-25.12,15.85-28.77a14.62,14.62,0,0,0-3.09-.53q8.46-3.84,16.61-8.38c-4.14,6.26-4.42,17.91-1.2,26.08,15.71-8.26,27.8-28.87,12.24-30.57a14.79,14.79,0,0,0-3.14-.13q7.95-4.89,15.53-10.46c-3.37,6.76-2.22,18.37,2,26.08,14.65-10.21,24.24-32.36,8.49-32a14.71,14.71,0,0,0-3.15.28q7.22-5.81,14-12.24a1.19,1.19,0,1,0-1.62-1.7,218.55,218.55,0,0,1-23.5,19.42,13.1,13.1,0,0,0,1-2.93c2.84-14.61-18.29-10.84-30.4-5,4.73,7.37,14.28,13.91,21.86,13.05q-7.75,5.08-15.86,9.46a13,13,0,0,0,1.37-2.77c4.56-14.09-16.71-13.09-29.4-8.8,3.77,7.9,12.41,15.58,20,15.7q-8.25,4.05-16.82,7.37a12.54,12.54,0,0,0,1.7-2.58c6.23-13.39-14.91-15.08-28-12.4,2.77,8.32,10.38,17,17.88,18.07q-8.68,3-17.58,5.22a12.46,12.46,0,0,0,2-2.35c7.83-12.51-12.9-16.81-26.29-15.77,1.72,8.59,8.2,18.15,15.51,20.14q-9,1.88-18.13,3A12.54,12.54,0,0,0,166.9,344.28Z" style="fill: rgb(230, 230, 230); transform-origin: 194.225px 329.855px 0px;" id="el9wha1qx2u0w" class="animable"></path><path d="M57.13,130.55c-8.85-1.3-14.87-12-11.33-18.11S49,98.71,46.89,93.12s-3-19.91,3.84-28.44,4.68-9.94,10.66-19.49,20.11-8.34,13.13,3,10.88,17.38,5.17,31-.31,18.89,4.52,26.05S76.68,133.41,57.13,130.55Z" style="fill: rgb(240, 240, 240); transform-origin: 65.0137px 84.7969px 0px;" id="elk3fx35uap4e" class="animable"></path><path d="M70.8,148c-14.18-27.24-14.33-54-11.95-71.63,2.58-19.12,8.59-32,8.65-32.1l.53.25c-.06.13-6,12.91-8.6,32-2.37,17.55-2.22,44.16,11.89,71.26Z" style="fill: rgb(250, 250, 250); transform-origin: 64.5098px 96.1348px 0px;" id="el5yd2pvduuy4" class="animable"></path><path d="M67.6,157.9c-9.17,2.6-21.08-4.86-21.3-12.21s-5-14.35-10.19-18.73-14.4-17.53-12.9-28.53S21.88,87,22,75.4s14.27-16.56,14.21-2.85,20.45,11.73,23,27.09,10.69,18,19.44,22.66S87.86,152.16,67.6,157.9Z" style="fill: rgb(235, 235, 235); transform-origin: 53.1855px 111.344px 0px;" id="elx0qx8qjrn5" class="animable"></path><path d="M82.13,162.15c-20.28-11-34-33.16-42-49.84C31.43,94,27,76.38,27.94,72.78l.57.14C27,79,44.18,141,82.4,161.64Z" style="fill: rgb(250, 250, 250); transform-origin: 55.1074px 117.465px 0px;" id="elw607uktaiw" class="animable"></path><path d="M238.9,47.13a1.29,1.29,0,1,1-2.57,0,1.29,1.29,0,0,1,2.57,0Z" style="fill: rgb(224, 224, 224); transform-origin: 237.613px 47.2422px 0px;" id="elxfzpjw1mvyk" class="animable"></path><path d="M122.46,48.42a1.29,1.29,0,1,1-1.29-1.29A1.28,1.28,0,0,1,122.46,48.42Z" style="fill: rgb(240, 240, 240); transform-origin: 121.17px 48.4199px 0px;" id="elp0h3ylm1ikp" class="animable"></path><circle cx="183.07" cy="72.85" r="6.13" style="fill: rgb(240, 240, 240); transform-origin: 183.07px 72.85px 0px;" id="el2fr2l2sz8wr" class="animable"></circle><circle cx="307.64" cy="65.2" r="3.92" style="fill: rgb(224, 224, 224); transform-origin: 307.64px 65.2px 0px;" id="elyb7y9zsovu" class="animable"></circle><path d="M278.43,364.2c-2.44.82-3.1,1.49-3.93,3.92-.82-2.43-1.48-3.1-3.92-3.92,2.44-.82,3.1-1.49,3.92-3.92C275.33,362.71,276,363.38,278.43,364.2Z" style="fill: rgb(240, 240, 240); transform-origin: 274.504px 364.201px 0px;" id="el5q2bd1rxjkd" class="animable"></path></g><g id="freepik--Shadow--inject-1" style="transform-origin: 250px 416.24px 0px;" class="animable"><ellipse id="freepik--path--inject-1" cx="250" cy="416.24" rx="193.89" ry="11.32" style="fill: rgb(245, 245, 245); transform-origin: 250px 416.24px 0px;" class="animable"></ellipse></g><g id="freepik--landing-page--inject-1" style="transform-origin: 250px 221.91px 0px;" class="animable"><rect x="43" y="92.66" width="414" height="261.39" style="fill: rgb(64, 123, 255); transform-origin: 250px 223.355px 0px;" id="eljxoz0srhaie" class="animable"></rect><g id="el5c4ydoeffje"><rect x="43" y="92.66" width="414" height="261.39" style="fill: rgb(255, 255, 255); opacity: 0.6; transform-origin: 250px 223.355px 0px;" class="animable"></rect></g><rect x="45.67" y="89.77" width="408.67" height="261.7" style="fill: rgb(64, 123, 255); transform-origin: 250.005px 220.62px 0px;" id="elbqtgurzh1r" class="animable"></rect><g id="elk9jfvekd5g"><rect x="45.67" y="89.77" width="408.67" height="261.7" style="fill: rgb(255, 255, 255); opacity: 0.8; transform-origin: 250.005px 220.62px 0px;" class="animable"></rect></g><g id="elbscu6dhuxur"><path d="M338,338.74c-1.77,0-3.57,0-5.39-.11-36-1.5-59.19-16.59-83.79-32.56-10.61-6.89-21.58-14-34.07-20.43-21.35-11-36.28-5.91-52.09-.56-10.41,3.52-21.16,7.16-34.26,6.32-15.07-1-26.29-6.53-33.34-16.54-10.9-15.47-9.6-39-4.76-55.88,9.59-33.39,32.32-59.24,65.73-74.74,31.89-14.81,72.28-19.82,116.78-14.49,58.47,7,110,35.51,134.36,74.4,16.25,25.91,19.58,54.93,9.62,83.93C405.67,320.47,377.11,338.74,338,338.74ZM189.92,278.63c7.53,0,15.68,1.75,25.06,6.57,12.51,6.42,23.49,13.55,34.11,20.45,24.54,15.93,47.72,31,83.54,32.48,41.64,1.74,72.14-16.57,83.69-50.21,9.91-28.86,6.6-57.73-9.58-83.5-24.32-38.77-75.67-67.19-134-74.17-93.29-11.17-163,22.88-182,88.87-4.81,16.76-6.11,40.13,4.69,55.45,7,9.89,18,15.38,33,16.33,13,.83,23.7-2.79,34.06-6.3C171.48,281.57,180.18,278.63,189.92,278.63Z" style="fill: rgb(255, 255, 255); opacity: 0.3; transform-origin: 254.559px 233.209px 0px;" class="animable"></path></g><path d="M417.91,169.91c26,39.68,20.93,98.42-29.05,132.82-54.48,37.5-106.36,27.75-132.9-11.32s-14.86-88.83,26.82-124.53S390.4,127.9,417.91,169.91Z" style="fill: rgb(255, 255, 255); transform-origin: 337.555px 232.787px 0px;" id="elgokkdhg75n9" class="animable"></path><g id="elk5a88ejdds"><g style="opacity: 0.5; transform-origin: 154.91px 106.57px 0px;" class="animable"><rect x="71.02" y="104.97" width="23.97" height="3.2" rx="1.45" style="fill: rgb(64, 123, 255); transform-origin: 83.005px 106.57px 0px;" id="elkxm306v0ter" class="animable"></rect><rect x="118.95" y="104.97" width="23.97" height="3.2" rx="1.45" style="fill: rgb(64, 123, 255); transform-origin: 130.935px 106.57px 0px;" id="elg9mo44i6bxe" class="animable"></rect><rect x="166.89" y="104.97" width="23.97" height="3.2" rx="1.45" style="fill: rgb(64, 123, 255); transform-origin: 178.875px 106.57px 0px;" id="elrbq7qawm1d" class="animable"></rect><rect x="214.83" y="104.97" width="23.97" height="3.2" rx="1.45" style="fill: rgb(64, 123, 255); transform-origin: 226.815px 106.57px 0px;" id="ele4657v43s2o" class="animable"></rect></g></g><rect x="390.78" y="104.97" width="43.54" height="5.82" rx="2.63" style="fill: rgb(64, 123, 255); transform-origin: 412.55px 107.88px 0px;" id="eloiss2y3dflo" class="animable"></rect><rect x="71.02" y="151.86" width="124.16" height="12.15" rx="6.07" style="fill: rgb(255, 255, 255); transform-origin: 133.1px 157.935px 0px;" id="eld2y8c7fsxxb" class="animable"></rect><rect x="71.02" y="176.21" width="153.76" height="25.39" rx="5.42" style="fill: rgb(255, 255, 255); transform-origin: 147.9px 188.905px 0px;" id="el358k85xf1xu" class="animable"></rect><rect x="71.02" y="211.94" width="108.64" height="25.39" rx="5.42" style="fill: rgb(255, 255, 255); transform-origin: 125.34px 224.635px 0px;" id="elj9ftg3sitzn" class="animable"></rect><g id="elqnoq8ze9cfr"><path d="M175.57,254.7H73.26A2.24,2.24,0,0,1,71,252.45h0a2.24,2.24,0,0,1,2.24-2.24H175.57a2.24,2.24,0,0,1,2.24,2.24h0A2.24,2.24,0,0,1,175.57,254.7Z" style="fill: rgb(64, 123, 255); opacity: 0.3; transform-origin: 124.404px 252.455px 0px;" class="animable"></path></g><g id="el2tuildnnmkt"><path d="M144.23,263.36h-71A2.24,2.24,0,0,1,71,261.12h0a2.24,2.24,0,0,1,2.24-2.24h71a2.24,2.24,0,0,1,2.24,2.24h0A2.24,2.24,0,0,1,144.23,263.36Z" style="fill: rgb(64, 123, 255); opacity: 0.3; transform-origin: 108.74px 261.119px 0px;" class="animable"></path></g><g id="elifhqfvpv1i"><rect x="71.02" y="284.91" width="100.64" height="30.38" rx="15.19" style="fill: rgb(64, 123, 255); opacity: 0.1; transform-origin: 121.34px 300.1px 0px;" class="animable"></rect></g><path d="M155.26,312.32h-68A14.71,14.71,0,0,1,72.5,297.61h0a14.71,14.71,0,0,1,14.71-14.7h68.05A14.71,14.71,0,0,1,170,297.61h0A14.71,14.71,0,0,1,155.26,312.32Z" style="fill: rgb(64, 123, 255); transform-origin: 121.25px 297.615px 0px;" id="elu7so8nqljin" class="animable"></path><g id="el5wls799kvtk"><path d="M138.17,301.51H104.3a3.9,3.9,0,0,1-3.9-3.9h0a3.9,3.9,0,0,1,3.9-3.89h33.87a3.89,3.89,0,0,1,3.9,3.89h0A3.89,3.89,0,0,1,138.17,301.51Z" style="fill: rgb(255, 255, 255); opacity: 0.4; transform-origin: 121.234px 297.615px 0px;" class="animable"></path></g><path d="M291.9,133a16,16,0,0,1-28,14.1,15.74,15.74,0,0,0,8.12,0,16,16,0,0,0,8.42-25.51A16,16,0,0,1,291.9,133Z" style="fill: rgb(255, 255, 255); transform-origin: 278.178px 137.387px 0px;" id="elgj2dt4nhn" class="animable"></path><g id="elxurne75brpb"><circle cx="437.17" cy="179.89" r="0.89" style="fill: rgb(255, 255, 255); opacity: 0.6; transform-origin: 437.17px 179.89px 0px;" class="animable"></circle></g><g id="ele8vtdse3wuh"><path d="M371.42,132.18a.89.89,0,1,1-.89-.89A.89.89,0,0,1,371.42,132.18Z" style="fill: rgb(255, 255, 255); opacity: 0.6; transform-origin: 370.531px 132.18px 0px;" class="animable"></path></g><g id="elvri8koo6eb"><circle cx="302.5" cy="145.57" r="0.89" style="fill: rgb(255, 255, 255); opacity: 0.6; transform-origin: 302.5px 145.57px 0px;" class="animable"></circle></g><g id="elx38na6hfb9"><circle cx="341.26" cy="171.81" r="0.89" style="fill: rgb(64, 123, 255); opacity: 0.6; transform-origin: 341.26px 171.81px 0px;" class="animable"></circle></g><g id="ellr18qdarpsg"><path d="M413.44,218.33a.89.89,0,1,1-.89-.89A.89.89,0,0,1,413.44,218.33Z" style="fill: rgb(64, 123, 255); opacity: 0.6; transform-origin: 412.551px 218.33px 0px;" class="animable"></path></g><g id="elmh0s0u8o8i"><path d="M328.55,127.94c-2.63.89-3.35,1.61-4.24,4.24-.89-2.63-1.61-3.35-4.24-4.24,2.63-.89,3.35-1.61,4.24-4.24C325.2,126.33,325.92,127.05,328.55,127.94Z" style="fill: rgb(255, 255, 255); opacity: 0.7; transform-origin: 324.311px 127.939px 0px;" class="animable"></path></g><g id="el9mneg6e0m7j"><circle cx="418.97" cy="144.69" r="2.71" style="fill: rgb(255, 255, 255); opacity: 0.7; transform-origin: 418.97px 144.69px 0px;" class="animable"></circle></g><g id="elu40qph8xywn"><path d="M250.92,157.93a3.41,3.41,0,0,0-2.71,2.71,3.41,3.41,0,0,0-2.71-2.71,3.41,3.41,0,0,0,2.71-2.71A3.41,3.41,0,0,0,250.92,157.93Z" style="fill: rgb(255, 255, 255); opacity: 0.7; transform-origin: 248.211px 157.93px 0px;" class="animable"></path></g><g id="el6vhf3fs4g5f"><path d="M313.68,172.39c-2.08.7-2.64,1.27-3.35,3.35-.7-2.08-1.27-2.65-3.35-3.35,2.08-.7,2.65-1.27,3.35-3.35C311,171.12,311.6,171.69,313.68,172.39Z" style="fill: rgb(64, 123, 255); opacity: 0.7; transform-origin: 310.33px 172.389px 0px;" class="animable"></path></g><g id="el5h04zqdg4tr"><circle cx="346.52" cy="145.57" r="1.57" style="fill: rgb(64, 123, 255); opacity: 0.7; transform-origin: 346.52px 145.57px 0px;" class="animable"></circle></g><path d="M382.11,241.7c.4-1.47,7.13-.92,15,1.23s14,5.1,13.58,6.57l8.31,2.27c.64-2.32-9-7-21.47-10.38s-23.13-4.29-23.76-2Z" style="fill: rgb(64, 123, 255); transform-origin: 396.4px 244.947px 0px;" id="elzk9djkm0j4l" class="animable"></path><g id="elqfaktesahv"><path d="M385.79,238.82a108.31,108.31,0,0,1,11.77,2.57A112.74,112.74,0,0,1,409,245.15a13.31,13.31,0,0,1,.07,2.45,48.58,48.58,0,0,0-11.95-4.67c-5.22-1.42-9.94-2.15-12.65-2.05A12.14,12.14,0,0,1,385.79,238.82Z" style="opacity: 0.2; transform-origin: 396.783px 243.211px 0px;" class="animable"></path></g><g id="elht3cwj8mu84"><circle cx="396.42" cy="245.6" r="11.37" style="fill: rgb(64, 123, 255); transform-origin: 396.42px 245.6px 0px; transform: rotate(-23.26deg);" class="animable"></circle></g><g id="elc563uz5xkx"><circle cx="396.42" cy="245.6" r="11.37" style="fill: rgb(255, 255, 255); opacity: 0.4; transform-origin: 396.42px 245.6px 0px;" class="animable"></circle></g><g id="elueooi9kn9h"><path d="M387.49,242.32c.09,2.16,1.74,3.2,3.68,2.34a6.15,6.15,0,0,0,3.33-5.48c-.09-2.16-1.74-3.21-3.67-2.34A6.14,6.14,0,0,0,387.49,242.32Z" style="fill: rgb(255, 255, 255); opacity: 0.1; transform-origin: 390.994px 240.748px 0px;" class="animable"></path></g><g id="el6s0r426unb8"><path d="M398.36,240.85a1.49,1.49,0,1,0,.88-1.9A1.49,1.49,0,0,0,398.36,240.85Z" style="fill: rgb(255, 255, 255); opacity: 0.1; transform-origin: 399.76px 240.346px 0px;" class="animable"></path></g><g id="elz2lsmpbui0q"><path d="M401.09,253a1.26,1.26,0,0,0,1.62.76,1.27,1.27,0,0,0-.87-2.38A1.25,1.25,0,0,0,401.09,253Z" style="fill: rgb(255, 255, 255); opacity: 0.1; transform-origin: 402.238px 252.582px 0px;" class="animable"></path></g><g id="elrdmys2zp1xi"><path d="M395.4,249.32a58.2,58.2,0,0,0,10.84,2,10.55,10.55,0,0,1-1.31,1.79c-3-.54-6.43-1.3-9.95-2.26s-6.83-2-9.73-3.11a10.13,10.13,0,0,1-.21-2.2A59.42,59.42,0,0,0,395.4,249.32Z" style="fill: rgb(64, 123, 255); opacity: 0.5; transform-origin: 395.639px 249.324px 0px;" class="animable"></path></g><path d="M382.11,241.7c-.41,1.47,5.67,4.41,13.57,6.57s14.64,2.7,15,1.23l8.31,2.27c-.63,2.33-11.27,1.45-23.77-2s-22.1-8.05-21.46-10.38Z" style="fill: rgb(64, 123, 255); transform-origin: 396.359px 246.23px 0px;" id="el26kx0xpr156" class="animable"></path><path d="M223.34,283l-10.9,18,17.33-4.85,17.33-4.84-21.14-9A2.06,2.06,0,0,0,223.34,283Z" style="fill: rgb(64, 123, 255); transform-origin: 229.771px 291.547px 0px;" id="ely8fc9neh37b" class="animable"></path><g id="el2zfq3wweovn"><path d="M223.34,283l-10.9,18,17.33-4.85,17.33-4.84-21.14-9A2.06,2.06,0,0,0,223.34,283Z" style="fill: rgb(255, 255, 255); opacity: 0.5; transform-origin: 229.771px 291.547px 0px;" class="animable"></path></g><path d="M255,314.46l-33,9.23a1.71,1.71,0,0,1-2-1.07l-7.87-20.73A1.37,1.37,0,0,1,213,300l33-9.22a1.7,1.7,0,0,1,2,1.07l7.87,20.73A1.36,1.36,0,0,1,255,314.46Z" style="fill: rgb(64, 123, 255); transform-origin: 234px 307.234px 0px;" id="el3ix9jkmk3yp" class="animable"></path><g id="elgnkj4efnvtk"><path d="M255,314.46l-33,9.23a1.71,1.71,0,0,1-2-1.07l-7.87-20.73A1.37,1.37,0,0,1,213,300l33-9.22a1.7,1.7,0,0,1,2,1.07l7.87,20.73A1.36,1.36,0,0,1,255,314.46Z" style="fill: rgb(255, 255, 255); opacity: 0.3; transform-origin: 234px 307.234px 0px;" class="animable"></path></g><g id="elxcg4zbzzbpj"><path d="M234.72,310.5l-19.95-9.62a.72.72,0,0,1,0-1.35l14.73-4.12,14.74-4.12a.8.8,0,0,1,.92,1.1l-9.52,17.86A.68.68,0,0,1,234.72,310.5Z" style="fill: rgb(64, 123, 255); opacity: 0.2; transform-origin: 229.764px 300.926px 0px;" class="animable"></path></g><path d="M235.17,305.86a2.59,2.59,0,0,0-3.43,1L222,323.69l33-9.23Z" style="fill: rgb(38, 50, 56); transform-origin: 238.5px 314.631px 0px;" id="elnectaxzwl49" class="animable"></path><path d="M234.19,305.71l-12.21,18,16.5-4.61L255,314.46,236.69,305A2,2,0,0,0,234.19,305.71Z" style="fill: rgb(64, 123, 255); transform-origin: 238.49px 314.264px 0px;" id="el11l2h6mtdesk" class="animable"></path><g id="elbo7fkbrulbv"><path d="M236.69,305a2,2,0,0,0-2.5.7l-12.21,18,33-9.23Z" style="fill: rgb(255, 255, 255); opacity: 0.12; transform-origin: 238.48px 314.256px 0px;" class="animable"></path></g></g><g id="freepik--Character--inject-1" style="transform-origin: 330.863px 274.494px 0px;" class="animable"><path d="M272.22,174.05c3.33-3.59,8.34,4.82,8.34,4.82s3.28,1.2.21,3.83C271.22,178.41,272.22,174.05,272.22,174.05Z" style="fill: rgb(38, 50, 56); transform-origin: 277.135px 177.93px 0px;" id="elyzqcgrczy9b" class="animable"></path><path d="M301.53,292.9c-7.6-12.93,48-24.16,48.61-35.23-8.48-16.63-23.07-36-23.07-36l-48.34,21.27S287.36,286.65,301.53,292.9Z" id="elyme15w6oqw" style="transform-origin: 314.436px 257.285px 0px;" class="animable"></path><path d="M315.3,272.78l15.21-24.12s51,37.34,55,45.38,5.5,73.43,5.5,73.43l-9.59-.2s-12.22-33-12.92-62.62C339.3,292,315.3,272.78,315.3,272.78Z" style="fill: rgb(38, 50, 56); transform-origin: 353.156px 308.064px 0px;" id="elih9vn9g863" class="animable"></path><path d="M338.62,279.38A19.76,19.76,0,0,0,340.38,290c-3.68-2.23-7.05-4.4-10.06-6.4l-.49-.91Z" id="elyfa52dqr82l" style="transform-origin: 335.104px 284.689px 0px;" class="animable"></path><path d="M400.57,380.61s-11.12-8.27-11.44-13.86l-8,.55-1.65,8.58,4.26,1.5.87-1,.86,1.64c3.45,1.21,12.67,4.31,15.11,4.29A1.7,1.7,0,0,0,400.57,380.61Z" style="fill: rgb(38, 50, 56); transform-origin: 390.141px 374.529px 0px;" id="elf4vtp6nx3ou" class="animable"></path><polygon points="391.51 369.73 380.28 369.07 379.45 364.15 392.06 364.06 391.51 369.73" style="fill: rgb(64, 123, 255); transform-origin: 385.755px 366.895px 0px;" id="eltx0buwfqazt" class="animable"></polygon><path d="M302.23,271.45l26.6-10.26s18.55,60.39,17,69.25-39.47,62.17-39.47,62.17l-7.56-5.89s9.92-33.78,27-57.93C310,301.22,302.23,271.45,302.23,271.45Z" style="fill: rgb(38, 50, 56); transform-origin: 322.361px 326.9px 0px;" id="eladwqtig4vpp" class="animable"></path><path d="M306.18,408.86s-4-13.28-.89-17.95l-6.74-4.32-6.45,5.89,2.52,3.75,1.31-.31-.29,1.83c2,3,7.58,11,9.55,12.48A1.71,1.71,0,0,0,306.18,408.86Z" style="fill: rgb(38, 50, 56); transform-origin: 299.141px 398.41px 0px;" id="el4xpfycryc2u" class="animable"></path><polygon points="305.41 394.72 296.8 387.49 299.07 383.04 309.24 390.51 305.41 394.72" style="fill: rgb(64, 123, 255); transform-origin: 303.02px 388.88px 0px;" id="el8mj3ek1fuix" class="animable"></polygon><path d="M310.61,198.49c2.28,1.44,4.77,3,7.18,4.46s4.88,2.9,7.32,4.28,4.9,2.65,7.32,3.79a40.65,40.65,0,0,0,6.83,2.57l-2.5.07a3.79,3.79,0,0,0,1.41-.42,17.41,17.41,0,0,0,2.34-1.24c1.63-1,3.37-2.22,5.06-3.53s3.43-2.67,5.14-4.07l5.16-4.23.07-.06a3.67,3.67,0,0,1,5.53,4.65,71.08,71.08,0,0,1-3.87,6c-1.39,1.94-2.86,3.83-4.45,5.67a52.54,52.54,0,0,1-5.31,5.36,31.66,31.66,0,0,1-3.36,2.54,16.7,16.7,0,0,1-4.87,2.21,5.14,5.14,0,0,1-2,.13l-.48-.07a44.91,44.91,0,0,1-10.06-2.72c-1.52-.58-3-1.2-4.45-1.83s-2.85-1.33-4.25-2c-2.79-1.39-5.48-2.89-8.13-4.44s-5.19-3.17-7.82-5a7.32,7.32,0,0,1,8.08-12.19Z" style="fill: rgb(38, 50, 56); transform-origin: 330.688px 212.047px 0px;" id="el42g3j2nuln9" class="animable"></path><path d="M360.15,204c3.63.26,6.55-5.83,6.55-5.83l2.41-3.41a2.89,2.89,0,0,0-.34-3.73l-2.53-2.5a2.9,2.9,0,0,0-4.14.08l-2.84,3a5.31,5.31,0,0,0-1.13,1.88l-1,2.85a6.66,6.66,0,0,0,1.68,6.93l.24.23A1.66,1.66,0,0,0,360.15,204Z" style="fill: rgb(255, 181, 115); transform-origin: 363.207px 195.854px 0px;" id="elei8tyst1lnl" class="animable"></path><path d="M353.49,201.38s.87-2,1.57-3.36c2.25-.39,7.85,4.32,8.58,6.31-.49,1.07-3.22,3.21-3.22,3.21C358.71,205.62,354.82,202.73,353.49,201.38Z" style="fill: rgb(224, 224, 224); transform-origin: 358.564px 202.768px 0px;" id="ellnilz1reumh" class="animable"></path><path d="M271.45,217c8.13-6.18,20.72-13.36,30-16.78A11.77,11.77,0,0,1,314.63,204c9.13,11.66,16.58,28.71,28.41,51.68-15.36,17.7-39.47,22.8-39.47,22.8-3.31-4.1-6.41-13.76-9.93-22.24-6.3-7.22-15.07-14.58-23.56-24.09A10.22,10.22,0,0,1,271.45,217Z" style="fill: rgb(255, 255, 255); transform-origin: 305.191px 239.008px 0px;" id="el9qpfpl6lbfv" class="animable"></path><path d="M329.83,262.28a.49.49,0,0,1-.46-.32c-8.21-20.66-30.74-45.24-35.33-48.42a.5.5,0,0,1,.56-.82c4.65,3.21,27.42,28,35.7,48.87a.51.51,0,0,1-.28.65A.43.43,0,0,1,329.83,262.28Z" style="fill: rgb(230, 230, 230); transform-origin: 312.1px 237.473px 0px;" id="elim5631nxv6" class="animable"></path><path d="M278,212.44c17.12,8.87,9.38,62.18,36.17,85.56-15.78-.09-26.79-11.35-26.79-11.35s-10-43.39-19.95-56C261.37,223,269.94,216.51,278,212.44Z" style="fill: rgb(38, 50, 56); transform-origin: 289.779px 255.221px 0px;" id="elvl4f1kcz5x" class="animable"></path><path d="M293.94,203.7c8.83,3.35,57,46.58,58.06,71,4.81-17.4-3.29-32-3.29-32s-16.25-18.23-23.35-27.9-15.48-19-22.1-16.91C294.79,200.48,293.94,203.7,293.94,203.7Z" style="fill: rgb(38, 50, 56); transform-origin: 323.732px 236.146px 0px;" id="el0opuvr2cqyzk" class="animable"></path><path d="M270.4,195.21l14.73,2.39c.71,4.19,2.38,8,8.81,6.1,2.49,1.05,1.25,4.62-.52,7-4,1.72-10.07,3.55-14.19,1.73C278.51,209.48,274.32,199.73,270.4,195.21Z" style="fill: rgb(255, 181, 115); transform-origin: 282.871px 204.197px 0px;" id="els7dmesildrs" class="animable"></path><path d="M294.6,207.2a8.8,8.8,0,0,1-.25,4.33c-1.53.88-4.75.45-4.75.45s-.54-2.91.38-4.1C293.51,206.84,294.6,207.2,294.6,207.2Z" style="fill: rgb(64, 123, 255); transform-origin: 292.102px 209.613px 0px;" id="elijjvwbsthk9" class="animable"></path><path d="M291.82,211.42a4.25,4.25,0,0,1,1.31-2.1c8.16,7.54,27.94,12.12,32.65,15.67,2.26,1.56,6.33,5.6,6.28,10.72-4.41-3.72-10-2.43-12.6-4.47C312.16,224.21,295.85,218.88,291.82,211.42Z" style="fill: rgb(64, 123, 255); transform-origin: 311.939px 222.516px 0px;" id="elp0xjhltgun" class="animable"></path><g id="el3gcfww0tjev"><path d="M276.54,196.21l8.59,1.39a14.54,14.54,0,0,0,.73,2.87c-2.16,1.47-6.62,1-8-1A9.89,9.89,0,0,1,276.54,196.21Z" style="opacity: 0.2; transform-origin: 281.199px 198.77px 0px;" class="animable"></path></g><path d="M264.83,193.63c5.64,4.66,8.7,7.68,13.94,7.53,7.88-.24,11.55-9.17,7.41-15.44-3.73-5.65-12.32-12.33-19.29-9.05A10.09,10.09,0,0,0,264.83,193.63Z" style="fill: rgb(255, 181, 115); transform-origin: 274.5px 188.484px 0px;" id="elaqm7o1d2ab" class="animable"></path><path d="M267.5,195.85c3.39-3,1.51-5.89-.33-5.53,1.61-2.19-1.72-5.86-4.37-5.31,4.24-3,12.49-6.54,11.15-12.57-1.25-5.66-11.91-5.31-11.65,1.85,1.79-.61,2.21,2.13-3,4.36-8.4,3.6-7.58,9.77-3.21,10.21C252.85,190.85,259.69,197.59,267.5,195.85Z" style="fill: rgb(38, 50, 56); transform-origin: 263.479px 182.33px 0px;" id="elzrhc9bvqo9" class="animable"></path><path d="M271.88,178.53c3.15-4.41,2.79-8,2.35-9.95C276.58,172.45,275.12,177.06,271.88,178.53Z" style="fill: rgb(38, 50, 56); transform-origin: 273.633px 173.555px 0px;" id="elvywb45u058" class="animable"></path><path d="M250.92,188.17c5.32,1.06,8.41-.72,10.05-1.94C258.4,190,253.6,190.52,250.92,188.17Z" style="fill: rgb(38, 50, 56); transform-origin: 255.945px 187.91px 0px;" id="el319msyhfxju" class="animable"></path><path d="M266.06,198.62a6.27,6.27,0,0,0,4.75.89c2.18-.47,2.24-2.68.78-4.2-1.32-1.36-4-2.76-5.81-1.48A2.87,2.87,0,0,0,266.06,198.62Z" style="fill: rgb(255, 181, 115); transform-origin: 268.604px 196.486px 0px;" id="elfhyqvt2rmep" class="animable"></path><path d="M272.55,187c.43.4,1,.5,1.26.22s.13-.85-.31-1.26-1-.5-1.26-.22S272.11,186.6,272.55,187Z" style="fill: rgb(38, 50, 56); transform-origin: 273.023px 186.479px 0px;" id="elsg6we06msc" class="animable"></path><path d="M277.69,182.12c.44.41,1,.51,1.27.22s.12-.85-.31-1.25-1-.51-1.27-.22S277.26,181.72,277.69,182.12Z" style="fill: rgb(38, 50, 56); transform-origin: 278.17px 181.607px 0px;" id="elt1zd1411ch" class="animable"></path><path d="M277.16,183.68a20.89,20.89,0,0,0,5.64,1.38,3.46,3.46,0,0,1-1.54,2.46Z" style="fill: rgb(237, 137, 62); transform-origin: 279.98px 185.6px 0px;" id="elign541osktm" class="animable"></path><path d="M270.07,186.85a.3.3,0,0,1-.14.1.35.35,0,0,1-.45-.21,3.52,3.52,0,0,1,.31-3.19.35.35,0,0,1,.56.42h0a2.83,2.83,0,0,0-.22,2.53A.34.34,0,0,1,270.07,186.85Z" style="fill: rgb(38, 50, 56); transform-origin: 269.826px 185.189px 0px;" id="el5e4ywh2ik9l" class="animable"></path><path d="M278.62,178.23a.36.36,0,0,1-.27.19,2.72,2.72,0,0,0-2.16,1.29.35.35,0,0,1-.47.14.35.35,0,0,1-.15-.47,3.41,3.41,0,0,1,2.71-1.66.35.35,0,0,1,.34.51Z" style="fill: rgb(38, 50, 56); transform-origin: 277.096px 178.805px 0px;" id="elizuqm84n7u" class="animable"></path><path d="M279.05,211.75s-.21-.62-.2-.62c-.47,0-2.21,1.58-1.35,2.46,2.94,2.92,10.41,2.71,13.43,1.82-.95-.89-1.39-5.78-1-7.52C287.52,209.48,284.36,210.7,279.05,211.75Z" style="fill: rgb(230, 230, 230); transform-origin: 284.098px 211.943px 0px;" id="el0a8oleqtasip" class="animable"></path><path d="M290,207.88a11.45,11.45,0,0,1,8.44,2.35c.78-1.26-.31-3.77-.79-4.54-1.5-2.59-3.12-3.89-5.85-1.54C291.63,205.24,292.51,206.22,290,207.88Z" style="fill: rgb(230, 230, 230); transform-origin: 294.357px 206.576px 0px;" id="elflhbs1a6k9w" class="animable"></path><path d="M279.21,228.82,275,234.6c-1.39,2-2.74,3.92-4.05,5.87s-2.54,3.93-3.64,5.84c-.55,1-1,1.91-1.46,2.81a18.32,18.32,0,0,0-1,2.37,13.87,13.87,0,0,0-.3,5,43.34,43.34,0,0,0,1.16,6.45,131.92,131.92,0,0,0,4.34,13.54l.06.18a3.66,3.66,0,0,1-6.24,3.6,58.5,58.5,0,0,1-4.7-6.48,64.24,64.24,0,0,1-3.88-7.08,44.14,44.14,0,0,1-2.87-8,24.32,24.32,0,0,1-.58-9.92,29.09,29.09,0,0,1,1.29-4.78c.52-1.43,1.08-2.76,1.67-4a76.72,76.72,0,0,1,3.83-7.21c1.35-2.29,2.79-4.49,4.27-6.64s3-4.21,4.74-6.34a7.32,7.32,0,0,1,11.61,8.89Z" style="fill: rgb(38, 50, 56); transform-origin: 266.063px 249.389px 0px;" id="eljq836dzva3" class="animable"></path><path d="M263.36,278.51a1.77,1.77,0,0,1,.9-.74l3.24-1.22a1.76,1.76,0,0,1,1.82.38l2.11,2a19.79,19.79,0,0,1,4.66,7l.35.88a2.91,2.91,0,0,1-1.71,3.77l-3.34,1.22a2.89,2.89,0,0,1-3.52-1.3l-2.05-3.64S261.57,281.68,263.36,278.51Z" style="fill: rgb(255, 181, 115); transform-origin: 269.775px 284.211px 0px;" id="elzfl3729yc9m" class="animable"></path><path d="M269.55,275.42a13.41,13.41,0,0,1,2.82,2.93c-.91,2.09-7.93,4.15-10,3.67-.63-1-.9-4.46-.9-4.46C264,277.2,267.69,275.79,269.55,275.42Z" style="fill: rgb(224, 224, 224); transform-origin: 266.92px 278.756px 0px;" id="eljtwenxq54z" class="animable"></path><path d="M280.67,190.94a7.55,7.55,0,0,0,.8-.8.18.18,0,0,0,0-.27.21.21,0,0,0-.29,0,5.72,5.72,0,0,1-4.51,2.07.2.2,0,0,0-.22.18.21.21,0,0,0,.19.21A6.13,6.13,0,0,0,280.67,190.94Z" style="fill: rgb(38, 50, 56); transform-origin: 278.99px 191.07px 0px;" id="elhf0v5l7ewz" class="animable"></path><path d="M365.79,185.05l46.73-17.53a1.24,1.24,0,0,0,.64-1.87l-15.29-26a1.89,1.89,0,0,0-2.21-.79l-46.73,17.53a1.25,1.25,0,0,0-.64,1.87l15.29,26A1.89,1.89,0,0,0,365.79,185.05Z" style="fill: rgb(64, 123, 255); transform-origin: 380.729px 161.955px 0px;" id="eld5c3441bsqm" class="animable"></path><path d="M363.37,221l46.73-17.53a2.81,2.81,0,0,0,1.57-2.22l2.81-32.82c.08-.93-.49-1.44-1.28-1.15L366.47,184.8A2.79,2.79,0,0,0,364.9,187l-2.81,32.83C362,220.76,362.59,221.28,363.37,221Z" style="fill: rgb(64, 123, 255); transform-origin: 388.285px 194.139px 0px;" id="elynq9dcep1pg" class="animable"></path><g id="elh9u3iawwf9j"><path d="M366.56,188.1a2.82,2.82,0,0,1,1.58-2.21l44.69-16.78a1.11,1.11,0,0,1,1.49,1.13l-2.65,31a2.77,2.77,0,0,1-1.57,2.22l-44.7,16.77a1.1,1.1,0,0,1-1.49-1.13Z" style="opacity: 0.2; transform-origin: 389.115px 194.674px 0px;" class="animable"></path></g><g id="ely2b57fkn58"><g style="opacity: 0.3; transform-origin: 270.781px 187.75px 0px;" class="animable"><g id="elpfchfnidah"><circle cx="270.78" cy="187.75" r="23.54" style="fill: rgb(64, 123, 255); transform-origin: 270.78px 187.75px 0px; transform: rotate(-57.46deg);" class="animable"></circle></g><g id="el56pi7k8h427"><ellipse cx="255.2" cy="187.23" rx="10.59" ry="6.79" style="fill: rgb(255, 255, 255); opacity: 0.4; transform-origin: 255.2px 187.23px 0px; transform: rotate(-84.9deg);" class="animable"></ellipse></g><g id="elqbjwuzck5cq"><path d="M265.35,193.39c-1-.56-2.53.21-3.34,1.72s-.64,3.19.39,3.75,2.53-.22,3.35-1.73S266.39,194,265.35,193.39Z" style="fill: rgb(255, 255, 255); opacity: 0.4; transform-origin: 263.883px 196.125px 0px;" class="animable"></path></g></g></g></g><defs>     <filter id="active" height="200%">         <feMorphology in="SourceAlpha" result="DILATED" operator="dilate" radius="2"></feMorphology>                <feFlood flood-color="#32DFEC" flood-opacity="1" result="PINK"></feFlood>        <feComposite in="PINK" in2="DILATED" operator="in" result="OUTLINE"></feComposite>        <feMerge>            <feMergeNode in="OUTLINE"></feMergeNode>            <feMergeNode in="SourceGraphic"></feMergeNode>        </feMerge>    </filter>    <filter id="hover" height="200%">        <feMorphology in="SourceAlpha" result="DILATED" operator="dilate" radius="2"></feMorphology>                <feFlood flood-color="#ff0000" flood-opacity="0.5" result="PINK"></feFlood>        <feComposite in="PINK" in2="DILATED" operator="in" result="OUTLINE"></feComposite>        <feMerge>            <feMergeNode in="OUTLINE"></feMergeNode>            <feMergeNode in="SourceGraphic"></feMergeNode>        </feMerge>            <feColorMatrix type="matrix" values="0   0   0   0   0                0   1   0   0   0                0   0   0   0   0                0   0   0   1   0 "></feColorMatrix>    </filter></defs></svg>